<?xml version="1.0" encoding="utf-8"?>
<!-- Svg Vector Icons : http://www.onlinewebfonts.com/icon -->
<!DOCTYPE svg PUBLIC "-//W3C//DTD SVG 1.1//EN" "http://www.w3.org/Graphics/SVG/1.1/DTD/svg11.dtd">
<svg version="1.1" xmlns="http://www.w3.org/2000/svg" xmlns:xlink="http://www.w3.org/1999/xlink" x="0px" y="0px" viewBox="0 0 1000 1000" enable-background="new 0 0 1000 1000" xml:space="preserve">
<metadata> Svg Vector Icons : http://www.onlinewebfonts.com/icon </metadata>
<g><path d="M758.8,653.7c-46.9,0-89.4,19.3-119.9,50.4L374.2,551.4c7.1-17.8,11-37.2,11-57.5c0-17.1-2.8-33.5-7.9-48.9L626,279.1c28,26.7,65.9,43.1,107.5,43.1c86.1,0,156.1-70,156.1-156.1C889.6,80,819.6,10,733.6,10c-86.1,0-156.1,70-156.1,156.1c0,17.1,2.8,33.7,7.9,49.1L336.8,381.1c-28-26.8-66-43.2-107.7-43.2c-86.1,0-156.1,70-156.1,156.1c0,86.1,70,156.1,156.1,156.1c38.3,0,73.4-13.9,100.6-36.9l269.5,155.5c-5.6,16.7-8.6,34.6-8.6,53.2c0,92.7,75.4,168.1,168.1,168.1c92.7,0,168.1-75.4,168.1-168.1C926.9,729.1,851.5,653.7,758.8,653.7z M733.6,95.1c39.1,0,70.9,31.8,70.9,71c0,39.1-31.8,70.9-70.9,70.9c-39.1,0-70.9-31.8-70.9-70.9C662.6,127,694.4,95.1,733.6,95.1z M229.1,564.9c-39.1,0-70.9-31.8-70.9-70.9c0-39.1,31.8-70.9,70.9-70.9c39.1,0,70.9,31.8,70.9,70.9C300.1,533.1,268.2,564.9,229.1,564.9z M758.8,905.9c-46.4,0-84.1-37.7-84.1-84.1c0-46.4,37.7-84.1,84.1-84.1c46.4,0,84.1,37.7,84.1,84.1C842.9,868.2,805.1,905.9,758.8,905.9z"/></g>
</svg>