<svg xmlns="http://www.w3.org/2000/svg" xmlns:xlink="http://www.w3.org/1999/xlink" width="32" height="17" viewBox="0 0 32 17"><defs><path id="316ka" d="M980.197 269.434c-1.232-2.918-4.199-4.9-7.379-4.93h-.074c-.227 0-.46.01-.687.03l-.138.014-.139.015c-.158.02-.316.044-.475.07-.158.029-.311.063-.47.098-.153.04-.31.084-.46.129-.153.049-.306.099-.454.153a8.23 8.23 0 0 0-1.36.658c-.742.45-1.316.984-1.731 1.4l-.86.86 3.07 3.223.408.43.001-.001.007.007c.648-.811 1.755-1.795 3.308-1.815h.05c.242 0 .48.03.702.09.057.013.113.033.17.05.069.022.136.046.2.073.055.022.111.043.164.07.069.029.133.063.198.103.098.054.193.119.281.183.075.06.144.114.213.178.579.524.94 1.28.94 2.121s-.361 1.598-.94 2.122c-.07.06-.138.119-.213.173a2.795 2.795 0 0 1-1.715.569h-.05c-1.647-.02-2.517-1.044-3.417-1.954l-2.571-2.7-1.82-1.909-1.904-1.997c-.406-.396-.935-.87-1.608-1.276a5.843 5.843 0 0 0-.48-.267 8.218 8.218 0 0 0-.88-.39 11.5 11.5 0 0 0-.454-.154c-.154-.045-.307-.09-.46-.129-.158-.034-.312-.07-.47-.099-.158-.024-.317-.05-.475-.069l-.138-.015-.139-.015c-.227-.02-.46-.03-.687-.03h-.074c-3.18.03-6.147 2.013-7.378 4.931a8.062 8.062 0 0 0-.633 3.175v.07a8.065 8.065 0 0 0 .633 3.174c1.23 2.917 4.198 4.896 7.378 4.925h.232c.074-.005.149-.005.223-.01.198-.004.39-.024.583-.044l.223-.03c.03-.005.064-.01.094-.02.114-.015.222-.034.331-.059a7.91 7.91 0 0 0 2.092-.732c.08-.044.163-.084.242-.128.08-.05.158-.095.238-.144.741-.445 1.315-.98 1.73-1.394l.87-.876-3.05-3.202-.428-.451-.008-.006c-.647.81-1.76 1.805-3.318 1.824h-.05a2.892 2.892 0 0 1-1.438-.38c-.094-.06-.188-.119-.277-.188a2.853 2.853 0 0 1-1.152-2.295c0-.84.36-1.597.94-2.121.068-.065.138-.119.212-.178.089-.064.183-.129.277-.183.069-.04.133-.074.203-.104a2.45 2.45 0 0 1 .534-.193c.222-.06.46-.089.702-.089h.05c.092.001.182.008.272.017l.071.007c1.536.182 2.604 1.389 3.153 2.043l2.477 2.601 1.825 1.909 1.429 1.503.36.361c.416.416.99.95 1.732 1.395.079.05.158.094.237.143.08.045.158.084.243.129a7.91 7.91 0 0 0 2.091.732c.109.025.218.044.327.06.034.01.069.014.099.02l.222.029c.193.02.386.04.584.044.074.005.148.005.217.01h.238c3.18-.03 6.146-2.008 7.378-4.925a8.064 8.064 0 0 0 .628-3.175v-.07a8.065 8.065 0 0 0-.628-3.174z"/></defs><g><g transform="translate(-949 -264)"><use fill="#3ed4e0" xlink:href="#316ka"/></g></g></svg>